<?xml version="1.0" standalone="no"?><!DOCTYPE svg PUBLIC "-//W3C//DTD SVG 1.1//EN" "http://www.w3.org/Graphics/SVG/1.1/DTD/svg11.dtd"><svg t="1540955637982" class="icon" style="" viewBox="0 0 1024 1024" version="1.1" xmlns="http://www.w3.org/2000/svg" p-id="3700" xmlns:xlink="http://www.w3.org/1999/xlink" width="200" height="200"><defs><style type="text/css"></style></defs><path d="M512.896 64a448.896 448.896 0 1 0 446.208 497.664 21.888 21.888 0 0 0-43.52-4.736 405.184 405.184 0 0 1-807.808-44.096 405.12 405.12 0 0 1 777.088-160.64 21.888 21.888 0 0 0 40.192-17.344A448.96 448.96 0 0 0 512.896 64z m391.36 307.072l21.888-21.888h-227.2a21.888 21.888 0 1 0 0 43.776h227.2a21.888 21.888 0 0 0 21.952-21.888V129.664a21.888 21.888 0 0 0-43.84 0v241.408z" fill="#333333" p-id="3701"></path></svg>